<svg xmlns="http://www.w3.org/2000/svg" aria-hidden="true" focusable="false" viewBox="0 50 510 520">
<g transform="matrix(2.804259,0,0,2.804259,-155.97962,-221.06613)">
	<g transform="matrix(1.0091127,0,0,1.0091127,-1.3407989,-1.5213269)">
		<path style="fill:#ffffff" d="M 60.089595,226.38341 144.11322,167.48579 60.089595,107.69856 C 43.658708,96.007118 100.0451,100.21903 100.0451,100.21903 l 86.08325,58.33703 c 6.04632,4.44788 6.04632,11.66018 0,16.10807 l -85.78926,59.11383 c 0,0 -56.27575,3.83929 -40.249495,-7.39455 z" />
		<path style="fill:#acacac" d="m 179.08861,207.29453 57.91573,0.39462 c 0,0 2.13905,26.12078 -8.43262,25.69591 l -60.88726,-0.0703 c -8.58397,-0.01 -14.93731,-2.66803 -14.93326,-11.25201 l 0.055,-77.04837 c 0.005,-15.53813 25.50737,-11.14836 25.50737,-11.14836 z" />
		<path style="fill:#ffffff" d="m 84.339366,128.21941 0.668507,71.14117 c 0,9.28561 -22.718752,14.49881 -22.718752,14.49881 l 0.284118,-70.71647 c 0.0053,-9.62407 21.766127,-14.92351 21.766127,-14.92351 z" />
	</g>
</g>
</svg>
